# xmcd
#
# Track frame offsets:
#	150
#	24123
#	48943
#	67905
#	88798
#	106443
#	125397
#	145556
#	168379
#	193422
#	213626
#	233358
#	253601
#	274310
#	296700
#	317823
#
# Disc length: 4687 seconds
#
# Revision: 1
# Processed by: cddbd v1.5.2PL0 Copyright (c) Steve Scherf et al.
# Submitted via: audiograbber 1.83.01
#
DISCID=e6124d10
DTITLE=Tony Joe White - Collected - CD3
DYEAR=2014
DGENRE=Blues
TTITLE0=Lake Placid Blues
TTITLE1=The Guitar Don't Lie
TTITLE2=Menutha
TTITLE3=Let The Healing Begin
TTITLE4=High Horse
TTITLE5=Crack The Window Baby
TTITLE6=Cold Fingers
TTITLE7=I Want My Fleetwood Back
TTITLE8=Ol' Black Crow
TTITLE9=Ice Cream Man
TTITLE10=Can't Go Back Home (feat. Shelby Lynne)
TTITLE11=Closing In On The Fire (feat. Lucinda Williams)
TTITLE12=Playa Del Carmen Nights (feat. Michelle White)
TTITLE13=Rich Woman Blues
TTITLE14=Did Somebody Make A Fool Out Of You (feat. Eric Clapton)
TTITLE15=Louvelda (feat. J.J. Cale)
EXTD=
EXTT0=
EXTT1=
EXTT2=
EXTT3=
EXTT4=
EXTT5=
EXTT6=
EXTT7=
EXTT8=
EXTT9=
EXTT10=
EXTT11=
EXTT12=
EXTT13=
EXTT14=
EXTT15=
PLAYORDER=
